<?xml version="1.0" encoding="utf-8"?>
<!-- Generator: Adobe Illustrator 19.2.0, SVG Export Plug-In . SVG Version: 6.00 Build 0)  -->
<!DOCTYPE svg PUBLIC "-//W3C//DTD SVG 1.1//EN" "http://www.w3.org/Graphics/SVG/1.1/DTD/svg11.dtd">
<svg version="1.1" id="Layer_1" xmlns="http://www.w3.org/2000/svg" xmlns:xlink="http://www.w3.org/1999/xlink" x="0px" y="0px"
	 width="288px" height="288px" viewBox="0 0 288 288" enable-background="new 0 0 288 288" xml:space="preserve">
<path d="M252.7,55.7c-3.5,10.8-9.8,18.1-17.6,25.1c3.9-0.8,7.8-1.5,11.6-2.5c3.8-1,7.6-2.5,12.2-4c-5.1,8-10.7,14.3-17.5,19.4
	c-4,3-5.3,6.1-5.5,11c-1.7,48.9-22.3,87.8-63.9,114.2c-25.2,16-53.4,21-83.1,18.2c-19.6-1.8-37.7-7.9-54.6-17.9
	c-0.9-0.5-1.7-1.1-3.7-2.5c25.7,2.3,47.9-3.8,68.7-19.1c-10.6-1.2-19.6-3.9-27.1-9.9c-7.5-5.9-13.1-13.2-16-22.9
	c6.4,0,12.5,0,18.7,0c0.1-0.3,0.3-0.7,0.4-1C53,156.5,41,141.3,39.5,118c6.5,1.8,12.6,3.6,18.8,5.4c0.2-0.4,0.5-0.8,0.7-1.2
	c-9.1-7.5-15.6-16.6-17.9-28.3c-2.3-11.5-0.8-22.5,5.3-33.4c25.5,29.7,57.3,46.3,96.5,48.9c-1.8-11.9-0.8-22.7,4.8-33
	c14.5-26.3,49.2-32.8,71.9-13c2.8,2.5,5.3,3.3,8.7,2c6.5-2.6,13-4.9,19.6-7.4C249.3,57.5,250.5,56.7,252.7,55.7z"/>
</svg>
