<?xml version="1.0" encoding="utf-8"?>
<!-- Generator: Adobe Illustrator 19.2.0, SVG Export Plug-In . SVG Version: 6.00 Build 0)  -->
<!DOCTYPE svg PUBLIC "-//W3C//DTD SVG 1.1//EN" "http://www.w3.org/Graphics/SVG/1.1/DTD/svg11.dtd">
<svg version="1.1" id="Layer_1" xmlns="http://www.w3.org/2000/svg" xmlns:xlink="http://www.w3.org/1999/xlink" x="0px" y="0px"
	 width="152.7px" height="38.4px" viewBox="0 0 152.7 38.4" enable-background="new 0 0 152.7 38.4" xml:space="preserve">
<path d="M1.2,17c1.3-1.2,2.7-2,4.4-2.6c1.7-0.6,3.3-0.9,5-0.9c1.7,0,3.2,0.2,4.5,0.6c1.2,0.4,2.3,1,3.1,1.7c0.8,0.7,1.4,1.6,1.8,2.5
	c0.4,0.9,0.6,1.9,0.6,3v12.1c0,0.8,0,1.6,0.1,2.3c0,0.7,0.1,1.4,0.1,2h-4c-0.1-1.2-0.1-2.4-0.1-3.6h-0.1c-1,1.5-2.2,2.6-3.5,3.2
	c-1.4,0.6-2.9,0.9-4.7,0.9c-1.1,0-2.1-0.2-3.1-0.5c-1-0.3-1.9-0.7-2.6-1.3c-0.7-0.6-1.3-1.3-1.8-2.2C0.2,33.5,0,32.4,0,31.3
	c0-1.5,0.3-2.8,1-3.8c0.7-1,1.6-1.9,2.8-2.5C5,24.3,6.4,23.8,8,23.5c1.6-0.3,3.3-0.4,5.1-0.4h3.3v-1c0-0.6-0.1-1.2-0.3-1.8
	c-0.2-0.6-0.6-1.1-1-1.6c-0.5-0.5-1-0.9-1.7-1.1c-0.7-0.3-1.5-0.4-2.5-0.4c-0.9,0-1.6,0.1-2.3,0.2c-0.6,0.2-1.2,0.4-1.8,0.6
	c-0.5,0.2-1,0.5-1.4,0.9c-0.4,0.3-0.8,0.6-1.2,0.9L1.2,17z M13.9,26.4c-1.1,0-2.2,0.1-3.3,0.2c-1.1,0.1-2.1,0.3-3,0.7
	C6.7,27.6,6,28,5.4,28.6c-0.6,0.6-0.9,1.4-0.9,2.3c0,1.4,0.5,2.3,1.4,2.9c0.9,0.6,2.2,0.9,3.7,0.9c1.2,0,2.3-0.2,3.1-0.6
	c0.9-0.4,1.6-1,2.1-1.6c0.5-0.7,0.9-1.4,1.1-2.2c0.2-0.8,0.3-1.6,0.3-2.4v-1.5H13.9z"/>
<path d="M25.6,14.1V7.4h4.5v6.6h6.4V18h-6.4v10.7c0,0.7,0,1.3,0,2c0,0.6,0.2,1.2,0.4,1.7c0.2,0.5,0.5,0.9,1,1.2
	c0.4,0.3,1.1,0.5,2,0.5c0.5,0,1.1,0,1.6-0.1c0.6-0.1,1.1-0.3,1.5-0.5v4.1c-0.5,0.3-1.2,0.5-2.1,0.6c-0.8,0.1-1.5,0.2-2,0.2
	c-1.7,0-3.1-0.2-4-0.7c-0.9-0.5-1.6-1.1-2.1-1.9c-0.4-0.8-0.7-1.6-0.8-2.6c-0.1-0.9-0.1-1.9-0.1-2.9V18V14.1z"/>
<path d="M42.8,0h4.5v17.7h0.1c0.6-1.3,1.5-2.3,2.9-3.1c1.4-0.8,3-1.2,4.8-1.2c1.1,0,2.2,0.2,3.3,0.5c1,0.3,2,0.9,2.7,1.6
	c0.8,0.7,1.4,1.7,1.9,2.8c0.5,1.1,0.7,2.5,0.7,4.1v15.2h-4.5v-14c0-1.1-0.1-2-0.4-2.8c-0.3-0.8-0.7-1.4-1.2-1.9
	c-0.5-0.5-1.1-0.8-1.7-1c-0.6-0.2-1.3-0.3-2-0.3c-0.9,0-1.8,0.1-2.6,0.4c-0.8,0.3-1.5,0.8-2.1,1.4c-0.6,0.6-1.1,1.5-1.4,2.5
	c-0.3,1-0.5,2.2-0.5,3.5v12.2h-4.5V0z"/>
<path d="M72.2,27.6c0,1,0.2,2,0.7,2.8c0.4,0.8,1,1.6,1.8,2.2c0.7,0.6,1.6,1.1,2.5,1.4c1,0.3,2,0.5,3,0.5c1.4,0,2.6-0.3,3.6-1
	c1-0.6,2-1.5,2.8-2.6l3.4,2.6c-2.5,3.2-6,4.8-10.5,4.8c-1.9,0-3.6-0.3-5.1-0.9c-1.5-0.6-2.8-1.5-3.8-2.6c-1-1.1-1.9-2.4-2.4-3.9
	c-0.6-1.5-0.8-3.2-0.8-4.9c0-1.8,0.3-3.4,0.9-4.9c0.6-1.5,1.5-2.8,2.5-3.9c1.1-1.1,2.4-2,3.9-2.6c1.5-0.6,3.1-0.9,4.9-0.9
	c2.1,0,3.9,0.4,5.3,1.1c1.4,0.7,2.6,1.7,3.6,2.9c0.9,1.2,1.6,2.5,2,4c0.4,1.5,0.6,3,0.6,4.5v1.6H72.2z M86.4,24c0-1-0.2-1.9-0.5-2.7
	c-0.3-0.8-0.7-1.6-1.3-2.2c-0.6-0.6-1.3-1.1-2.1-1.4c-0.8-0.3-1.8-0.5-3-0.5c-1.1,0-2.1,0.2-3,0.6c-0.9,0.4-1.7,1-2.3,1.6
	c-0.6,0.7-1.1,1.4-1.5,2.2c-0.3,0.8-0.5,1.6-0.5,2.4H86.4z"/>
<path d="M95.1,14.1h4.5v3.6h0.1c0.6-1.3,1.5-2.3,2.9-3.1c1.4-0.8,3-1.2,4.8-1.2c1.1,0,2.2,0.2,3.3,0.5c1,0.3,2,0.9,2.7,1.6
	c0.8,0.7,1.4,1.7,1.9,2.8c0.5,1.1,0.7,2.5,0.7,4.1v15.2h-4.5v-14c0-1.1-0.1-2-0.4-2.8c-0.3-0.8-0.7-1.4-1.2-1.9
	c-0.5-0.5-1.1-0.8-1.7-1c-0.6-0.2-1.3-0.3-2-0.3c-0.9,0-1.8,0.1-2.6,0.4c-0.8,0.3-1.5,0.8-2.1,1.4c-0.6,0.6-1.1,1.5-1.4,2.5
	c-0.3,1-0.5,2.2-0.5,3.5v12.2h-4.5V14.1z"/>
<path d="M121.5,17c1.3-1.2,2.7-2,4.4-2.6c1.7-0.6,3.3-0.9,5-0.9c1.7,0,3.2,0.2,4.5,0.6c1.2,0.4,2.3,1,3.1,1.7
	c0.8,0.7,1.4,1.6,1.8,2.5c0.4,0.9,0.6,1.9,0.6,3v12.1c0,0.8,0,1.6,0.1,2.3c0,0.7,0.1,1.4,0.1,2h-4c-0.1-1.2-0.1-2.4-0.1-3.6h-0.1
	c-1,1.5-2.2,2.6-3.5,3.2c-1.4,0.6-2.9,0.9-4.7,0.9c-1.1,0-2.1-0.2-3.1-0.5c-1-0.3-1.9-0.7-2.6-1.3c-0.7-0.6-1.3-1.3-1.8-2.2
	c-0.4-0.9-0.6-1.9-0.6-3.1c0-1.5,0.3-2.8,1-3.8c0.7-1,1.6-1.9,2.8-2.5c1.2-0.6,2.6-1.1,4.1-1.4c1.6-0.3,3.3-0.4,5.1-0.4h3.3v-1
	c0-0.6-0.1-1.2-0.3-1.8c-0.2-0.6-0.6-1.1-1-1.6c-0.5-0.5-1-0.9-1.7-1.1c-0.7-0.3-1.5-0.4-2.5-0.4c-0.9,0-1.6,0.1-2.3,0.2
	c-0.6,0.2-1.2,0.4-1.8,0.6c-0.5,0.2-1,0.5-1.4,0.9c-0.4,0.3-0.8,0.6-1.2,0.9L121.5,17z M134.2,26.4c-1.1,0-2.2,0.1-3.3,0.2
	c-1.1,0.1-2.1,0.3-3,0.7c-0.9,0.3-1.7,0.8-2.2,1.4c-0.6,0.6-0.9,1.4-0.9,2.3c0,1.4,0.5,2.3,1.4,2.9c0.9,0.6,2.2,0.9,3.7,0.9
	c1.2,0,2.3-0.2,3.1-0.6c0.9-0.4,1.6-1,2.1-1.6c0.5-0.7,0.9-1.4,1.1-2.2c0.2-0.8,0.3-1.6,0.3-2.4v-1.5H134.2z"/>
<path d="M149.4,38.1c-0.9,0-1.7-0.3-2.3-1s-1-1.4-1-2.3s0.3-1.7,1-2.3s1.4-1,2.3-1c0.9,0,1.7,0.3,2.3,1s1,1.4,1,2.3s-0.3,1.7-1,2.3
	S150.3,38.1,149.4,38.1z"/>
</svg>
