<?xml version="1.0" encoding="utf-8"?>
<!-- Generator: Adobe Illustrator 19.2.0, SVG Export Plug-In . SVG Version: 6.00 Build 0)  -->
<!DOCTYPE svg PUBLIC "-//W3C//DTD SVG 1.1//EN" "http://www.w3.org/Graphics/SVG/1.1/DTD/svg11.dtd">
<svg version="1.1" id="Layer_1" xmlns="http://www.w3.org/2000/svg" xmlns:xlink="http://www.w3.org/1999/xlink" x="0px" y="0px"
	 width="61.8px" height="50.8px" viewBox="0 0 61.8 50.8" enable-background="new 0 0 61.8 50.8" xml:space="preserve">
<path fill="#27AAE1" d="M28.5,15c0,0-1.2,18.8-21,14l-3,8.3c0,0,32.9,2.6,31.5-26.4l-8.1,2.4L28.5,15z"/>
<path d="M5.9,38.4c0,0-2-21.2,30.2-25.2c0,0,15.8,1.5,22.9-8.7c3-4.3,3.2-5,2.4-4.3c-2.9,2.4-6.6,3.7-10.4,3.2
	c-9.7-1.1-28.3-1.3-42.6,11c0,0-17.2,14.8-2.6,36.4L5.9,38.4z"/>
<g>
	<path d="M13.2,38.4c0.3-2.9,2.2-4.5,5.9-5.1C18.4,36.4,16,38.6,13.2,38.4z"/>
	<path d="M18.8,38.6c-0.6-2.8,0.9-5,4.2-6.6C23.1,35.8,21.1,38.4,18.8,38.6z"/>
	<path d="M14.1,34.8c-3,2.6-5.7,3-7.5,1.3C8.2,33.7,10.4,33.3,14.1,34.8z"/>
	<path d="M28.6,33.6c-1.4-2.4-0.5-5.2,2.3-7.5C31.8,29.4,31,32.3,28.6,33.6z"/>
	<path d="M15.1,39.5c2.7-1.1,5-0.1,6.6,3C18.6,43.2,15.5,42.2,15.1,39.5z"/>
	<path d="M32.1,31.8c0.7-2.7,3.2-4,6.7-3.7C37.1,31.6,34,32.9,32.1,31.8z"/>
	<path d="M35.4,27.1c0-3,2.3-5.3,5.4-5.8C39.8,25.1,38,27,35.4,27.1z"/>
	<path d="M27.4,40.7c-3.4,1.4-6,0.8-7.2-1.5C22.3,37.4,24.9,38,27.4,40.7z"/>
	<path d="M33.8,21.4c0.3,1.3,0.7,2.5,0.8,3.8c0.2,1.2-0.3,2.4-1.1,3.4c-0.5,0.6-0.7,0.6-1.1,0c-0.8-1.1-1-2.3-0.6-3.7
		c0.4-1.2,1-2.4,1.5-3.6C33.6,21.4,33.6,21.4,33.8,21.4z"/>
	<path d="M23.9,37.5c-1-2.6,0.1-5.1,3-7.2C27.7,33.4,26.4,36.5,23.9,37.5z"/>
	<path d="M15.6,43.5c-3.8-0.7-5.4-2.1-5.5-4.8C12.6,37.9,15.1,40,15.6,43.5z"/>
	<path d="M37.4,21.1c-0.9-2.5,0.5-4.9,4.1-6.8C41.5,17.9,40,20.6,37.4,21.1z"/>
	<path d="M35.7,22.5c-2.4-1.2-2.8-3.5-1.5-7.4C36.5,16.7,37.2,20.1,35.7,22.5z"/>
	<path d="M32.5,37.9c-3,1.9-5.6,1.9-7.4-0.1C27,35.2,30.3,36.1,32.5,37.9z"/>
	<path d="M28.6,34.9c1.6-2.6,4.8-2.3,7.3-0.9C34,36.2,30.3,36.7,28.6,34.9z"/>
	<path d="M10.1,42.8C6.7,41.9,4.6,40,5,37.4C7.8,37.2,9.4,38.9,10.1,42.8z"/>
	<path stroke="#FFFFFF" stroke-width="0.6175" stroke-miterlimit="10" d="M37.2,17.1c-2.2-1.3-2.4-4.7-0.6-7.5
		C38.8,12,39,15.3,37.2,17.1z"/>
</g>
</svg>
