<?xml version="1.0" encoding="utf-8"?>
<!-- Generator: Adobe Illustrator 19.2.0, SVG Export Plug-In . SVG Version: 6.00 Build 0)  -->
<!DOCTYPE svg PUBLIC "-//W3C//DTD SVG 1.1//EN" "http://www.w3.org/Graphics/SVG/1.1/DTD/svg11.dtd">
<svg version="1.1" id="Layer_1" xmlns="http://www.w3.org/2000/svg" xmlns:xlink="http://www.w3.org/1999/xlink" x="0px" y="0px"
	 width="99.2px" height="81.5px" viewBox="0 0 99.2 81.5" enable-background="new 0 0 99.2 81.5" xml:space="preserve">
<g>
	<g>
		<path fill="#2CC1D7" d="M36.9,19.4c0,0-1.5,24.2-26.6,18.1L6.5,48.2c0,0,41.6,3.3,39.9-34.1L36,17.2L36.9,19.4z"/>
	</g>
	<g>
		<path d="M7.6,49.6c0,0-2.6-27.3,39-32.5c0,0,20.4,1.9,29.6-11.2c3.9-5.5,4.1-6.4,3.1-5.6C75.6,3.4,70.7,5,65.9,4.4
			C53.5,3,29.4,2.8,11,18.6c0,0-22.2,19.1-3.4,47L7.6,49.6z"/>
	</g>
	<g>
		<g>
			<path d="M17.1,49.6c0.3-3.7,2.9-5.9,7.7-6.6C23.8,47,20.6,49.8,17.1,49.6z"/>
		</g>
		<g>
			<path d="M24.3,49.8c-0.7-3.5,1.2-6.5,5.5-8.5C29.8,46.2,27.3,49.5,24.3,49.8z"/>
		</g>
		<g>
			<path d="M18.2,44.9c-3.9,3.3-7.4,3.9-9.7,1.7C10.5,43.5,13.4,43,18.2,44.9z"/>
		</g>
		<g>
			<path d="M36.9,43.4c-1.8-3.1-0.7-6.7,2.9-9.7C41.1,38,40,41.7,36.9,43.4z"/>
		</g>
		<g>
			<path d="M19.5,51c3.5-1.4,6.4-0.1,8.5,3.8C24,55.8,20,54.4,19.5,51z"/>
		</g>
		<g>
			<path d="M41.4,41.1c0.9-3.4,4.1-5.1,8.7-4.7C47.8,40.8,43.8,42.4,41.4,41.1z"/>
		</g>
		<g>
			<path d="M45.6,35c0-3.8,2.9-6.9,6.9-7.5C51.4,32.3,49.1,34.9,45.6,35z"/>
		</g>
		<g>
			<path d="M35.4,52.5c-4.4,1.7-7.8,1-9.2-2C28.8,48.3,32.1,49,35.4,52.5z"/>
		</g>
		<g>
			<path d="M43.6,27.6c0.4,1.6,0.9,3.3,1.1,4.9c0.2,1.6-0.4,3.1-1.4,4.4c-0.6,0.8-1,0.7-1.5,0c-1-1.4-1.3-3-0.8-4.8
				c0.5-1.6,1.3-3.1,1.9-4.6C43.3,27.6,43.3,27.6,43.6,27.6z"/>
		</g>
		<g>
			<path d="M30.8,48.4c-1.3-3.3,0.1-6.6,3.9-9.3C35.7,43,34,47.1,30.8,48.4z"/>
		</g>
		<g>
			<path d="M20.2,56.2c-4.9-1-7-2.8-7-6.2C16.3,48.9,19.5,51.7,20.2,56.2z"/>
		</g>
		<g>
			<path d="M48.3,27.3c-1.1-3.2,0.7-6.3,5.2-8.8C53.5,23.1,51.6,26.6,48.3,27.3z"/>
		</g>
		<g>
			<path d="M46,29c-3.1-1.6-3.7-4.6-1.9-9.6C47.1,21.6,48,25.9,46,29z"/>
		</g>
		<g>
			<path d="M41.9,48.9c-3.9,2.5-7.2,2.5-9.5-0.1C34.8,45.5,39.1,46.6,41.9,48.9z"/>
		</g>
		<g>
			<path d="M36.9,45c2.1-3.4,6.2-3,9.4-1.2C43.9,46.7,39.1,47.3,36.9,45z"/>
		</g>
		<g>
			<path d="M13,55.2c-4.4-1.1-7.1-3.5-6.5-7C10.1,48,12.1,50.2,13,55.2z"/>
		</g>
		<g>
			<path d="M48,22.1c-2.8-1.7-3.2-6-0.7-9.7C50,15.5,50.3,19.7,48,22.1z"/>
			<path fill="#FFFFFF" d="M48,22.3L48,22.3c-1.2-0.7-2-1.9-2.4-3.3c-0.5-2.1,0.1-4.5,1.5-6.7l0.1-0.2l0.1,0.1
				C50.2,15.4,50.5,19.8,48,22.3L48,22.3z M47.3,12.6c-1.3,2-1.8,4.3-1.3,6.3c0.3,1.3,1,2.4,2,3C50.1,19.6,49.8,15.6,47.3,12.6z"/>
		</g>
	</g>
</g>
</svg>
