<?xml version="1.0" encoding="utf-8"?>
<!-- Generator: Adobe Illustrator 19.2.0, SVG Export Plug-In . SVG Version: 6.00 Build 0)  -->
<!DOCTYPE svg PUBLIC "-//W3C//DTD SVG 1.1//EN" "http://www.w3.org/Graphics/SVG/1.1/DTD/svg11.dtd">
<svg version="1.1" id="Layer_1" xmlns="http://www.w3.org/2000/svg" xmlns:xlink="http://www.w3.org/1999/xlink" x="0px" y="0px"
	 width="99.2px" height="81.5px" viewBox="0 0 99.2 81.5" enable-background="new 0 0 99.2 81.5" xml:space="preserve">
<g>
	<g>
		<path fill="#2CC1D7" d="M31.3,16.5c0,0-1.3,20.5-22.5,15.3l-3.3,9.1c0,0,35.2,2.8,33.8-28.9l-8.7,2.6L31.3,16.5z"/>
	</g>
	<g>
		<path d="M6.5,42.1c0,0-2.2-23.2,33-27.6c0,0,17.3,1.6,25.1-9.5c3.3-4.7,3.5-5.4,2.6-4.7c-3.2,2.7-7.2,4-11.3,3.5
			c-10.6-1.2-31-1.4-46.6,12c0,0-18.8,16.2-2.9,39.9L6.5,42.1z"/>
	</g>
	<g>
		<g>
			<path d="M14.5,42c0.3-3.1,2.4-5,6.5-5.6C20.2,39.8,17.5,42.2,14.5,42z"/>
		</g>
		<g>
			<path d="M20.6,42.2c-0.6-3,1-5.5,4.6-7.2C25.3,39.2,23.1,42,20.6,42.2z"/>
		</g>
		<g>
			<path d="M15.4,38c-3.3,2.8-6.3,3.3-8.2,1.4C8.9,36.9,11.4,36.4,15.4,38z"/>
		</g>
		<g>
			<path d="M31.3,36.8c-1.5-2.6-0.6-5.7,2.5-8.2C34.8,32.2,33.9,35.3,31.3,36.8z"/>
		</g>
		<g>
			<path d="M16.5,43.2c2.9-1.2,5.4-0.1,7.2,3.2C20.4,47.3,17,46.1,16.5,43.2z"/>
		</g>
		<g>
			<path d="M35.1,34.8c0.8-2.9,3.5-4.3,7.4-4C40.6,34.6,37.2,36,35.1,34.8z"/>
		</g>
		<g>
			<path d="M38.7,29.7c0-3.2,2.5-5.9,5.9-6.3C43.5,27.4,41.6,29.6,38.7,29.7z"/>
		</g>
		<g>
			<path d="M30,44.5c-3.8,1.5-6.6,0.9-7.8-1.7C24.4,41,27.2,41.5,30,44.5z"/>
		</g>
		<g>
			<path d="M37,23.4c0.3,1.4,0.7,2.8,0.9,4.2c0.2,1.3-0.3,2.6-1.2,3.7c-0.5,0.6-0.8,0.6-1.2,0c-0.8-1.2-1.1-2.6-0.6-4
				c0.4-1.3,1.1-2.6,1.6-3.9C36.7,23.4,36.7,23.4,37,23.4z"/>
		</g>
		<g>
			<path d="M26.1,41c-1.1-2.8,0.1-5.6,3.3-7.9C30.3,36.5,28.9,40,26.1,41z"/>
		</g>
		<g>
			<path d="M17.1,47.6c-4.2-0.8-5.9-2.3-6-5.2C13.8,41.5,16.5,43.8,17.1,47.6z"/>
		</g>
		<g>
			<path d="M41,23.1c-1-2.7,0.6-5.3,4.4-7.5C45.4,19.6,43.7,22.5,41,23.1z"/>
		</g>
		<g>
			<path d="M39,24.6c-2.6-1.3-3.1-3.9-1.6-8.1C39.9,18.3,40.7,21.9,39,24.6z"/>
		</g>
		<g>
			<path d="M35.5,41.4c-3.3,2.1-6.1,2.1-8.1-0.1C29.5,38.5,33.2,39.5,35.5,41.4z"/>
		</g>
		<g>
			<path d="M31.3,38.1c1.8-2.9,5.2-2.5,8-1C37.2,39.6,33.1,40.1,31.3,38.1z"/>
		</g>
		<g>
			<path d="M11,46.8c-3.7-0.9-6-3-5.5-5.9C8.5,40.7,10.3,42.5,11,46.8z"/>
		</g>
		<g>
			<path d="M40.7,18.7c-2.4-1.4-2.7-5.1-0.6-8.2C42.4,13.1,42.7,16.7,40.7,18.7z"/>
			<path fill="#FFFFFF" d="M40.7,18.9L40.7,18.9c-1.1-0.6-1.7-1.6-2-2.8c-0.4-1.8,0-3.8,1.2-5.6l0.1-0.1l0.1,0.1
				C42.5,13.1,42.8,16.8,40.7,18.9L40.7,18.9z M40.1,10.7C39,12.4,38.6,14.4,39,16c0.3,1.1,0.9,2,1.7,2.5
				C42.5,16.6,42.2,13.2,40.1,10.7z"/>
		</g>
	</g>
</g>
</svg>
