<?xml version="1.0" encoding="utf-8"?>
<!-- Generator: Adobe Illustrator 19.2.0, SVG Export Plug-In . SVG Version: 6.00 Build 0)  -->
<!DOCTYPE svg PUBLIC "-//W3C//DTD SVG 1.1//EN" "http://www.w3.org/Graphics/SVG/1.1/DTD/svg11.dtd">
<svg version="1.1" id="Layer_1" xmlns="http://www.w3.org/2000/svg" xmlns:xlink="http://www.w3.org/1999/xlink" x="0px" y="0px"
	 width="288px" height="288px" viewBox="0 0 288 288" enable-background="new 0 0 288 288" xml:space="preserve">
<path d="M161.3,153.3c-0.1,0.4-0.2,0.8-0.2,1.2c0,0.7,0,1.5,0,2.2c0,41.5,0,82.9,0,124.4c0,0.9,0,1.9,0,2.7
	c-0.8,0.6-1.6,0.4-2.3,0.4c-6.9,0-13.7,0-20.6,0c-8.4,0-16.8,0-25.2,0c-0.8,0-1.6,0-2.5,0c-0.1-0.5-0.2-0.9-0.2-1.3
	c0-0.7,0-1.5,0-2.2c0-41.5,0-83.1,0-124.6c0-0.9,0.1-1.9-0.2-2.9c-0.8,0-1.6-0.1-2.4-0.1c-9.8,0-19.6,0-29.4,0
	c-0.9,0-1.8,0.2-2.6-0.3c-0.3-1.8-0.3-45.6,0-47.6c0.7-0.3,1.5-0.2,2.3-0.2c9.9,0,19.7,0,29.6,0c0.8,0,1.6,0,2.5-0.1
	c0-0.9,0.1-1.7,0.1-2.5c0-12.4,0-24.8,0-37.2c0-5,0.5-10.1,1.6-15c4.5-19.9,16.3-33.5,35.1-41.1c5.8-2.3,11.8-3.7,18-4.5
	c8.9-1.2,17.9-0.9,26.9-0.6c3.6,0.2,7.3,0.4,10.9,0.6c3,0.2,6.1,0.4,9.1,1c0.1,0.3,0.2,0.5,0.2,0.7c-0.4,14.6-0.7,29.2-1.1,43.6
	c-0.6,0.7-1.2,0.6-1.8,0.5c-3.2,0-6.4-0.1-9.6-0.1c-5.6,0-11.2-0.1-16.9-0.1c-2.6,0-5.1,0.1-7.6,0.4c-2.1,0.2-4.2,0.7-6.1,1.6
	c-2.9,1.3-5.1,3.5-6.2,6.5c-0.6,1.6-1,3.2-1.3,4.8c-0.3,2.1-0.5,4.2-0.5,6.3c0,11,0,22,0,33.1c0,0.6,0,1.1,0.1,2c4.5,0,8.7,0,12.9,0
	c4.2,0,8.5,0,12.7,0s8.5,0,12.7,0c4.2,0,8.4,0,12.7,0c0.1,0.5,0.1,0.8,0.1,1c-0.6,15.5-1.4,31.1-2.2,46.7c-0.5,0.1-0.9,0.3-1.3,0.3
	c-0.7,0-1.3,0-2,0"/>
</svg>
