<?xml version="1.0" encoding="utf-8"?>
<!-- Generator: Adobe Illustrator 19.2.0, SVG Export Plug-In . SVG Version: 6.00 Build 0)  -->
<!DOCTYPE svg PUBLIC "-//W3C//DTD SVG 1.1//EN" "http://www.w3.org/Graphics/SVG/1.1/DTD/svg11.dtd">
<svg version="1.1" id="Layer_1" xmlns="http://www.w3.org/2000/svg" xmlns:xlink="http://www.w3.org/1999/xlink" x="0px" y="0px"
	 width="288px" height="288px" viewBox="0 0 288 288" enable-background="new 0 0 288 288" xml:space="preserve">
<path d="M241.2,145.8c0,19.1,0,38.2,0,57.3c0,18.9-12.1,34.1-30.5,38.4c-2.7,0.6-5.6,0.9-8.4,0.9c-38.6,0.1-77.2,0.1-115.9,0
	c-21.7,0-38.8-17.1-38.8-38.9c0-38.6-0.1-77.2,0-115.9c0-21.7,17.1-38.8,38.9-38.8c38.6,0,77.2-0.1,115.9,0
	c21.7,0,38.7,17.1,38.8,38.9C241.3,107.1,241.2,126.5,241.2,145.8z M202.1,131.2c9.4,38.9-20.4,72.4-54.9,73.9
	c-17.4,0.7-32.6-4.9-44.9-17.2c-15.7-15.8-20.5-34.9-16.1-56.6c-5.5,0-10.9,0-16.4,0c0,0.9,0,1.6,0,2.3c0,24.5,0,49,0,73.5
	c0,7.8,4.9,12.9,12.8,12.9c41,0,81.9,0,122.9,0c8,0,12.9-5.1,12.9-13.1c0-24.4,0-48.9,0-73.3c0-0.8-0.1-1.6-0.1-2.4
	C212.9,131.2,207.5,131.2,202.1,131.2z M181.4,145.8c0.1-20.4-16.4-37.2-36.7-37.4c-20.8-0.2-37.5,16.2-37.8,37.1
	c-0.3,20.2,16.5,37.2,36.8,37.4C164.5,183.1,181.3,166.6,181.4,145.8z M218.7,90.3c-0.1,0-0.1,0-0.2,0c0-2.2,0-4.3,0-6.5
	c-0.1-6.8-5.3-12.1-12.1-12.1c-4.3,0-8.5,0-12.8,0c-6.8,0-12.1,5.1-12.3,11.9c-0.1,4.4-0.1,8.9,0,13.3c0.2,6.7,5.3,11.9,12,12
	c4.4,0.1,8.9,0.1,13.3,0c5.7-0.1,10.3-3.7,11.5-9.2C218.7,96.6,218.5,93.4,218.7,90.3z"/>
</svg>
